<svg width="238" height="37" viewBox="0 0 238 37" fill="none" xmlns="http://www.w3.org/2000/svg">
<path d="M12.2727 36H0.443182V1.09091H12.5114C15.9773 1.09091 18.9545 1.78977 21.4432 3.1875C23.9432 4.57386 25.8636 6.56818 27.2045 9.17045C28.5455 11.7727 29.2159 14.8864 29.2159 18.5114C29.2159 22.1477 28.5398 25.2727 27.1875 27.8864C25.8466 30.5 23.9091 32.5057 21.375 33.9034C18.8523 35.3011 15.8182 36 12.2727 36ZM6.76705 30.5284H11.9659C14.3977 30.5284 16.4261 30.0852 18.0511 29.1989C19.6761 28.3011 20.8977 26.9659 21.7159 25.1932C22.5341 23.4091 22.9432 21.1818 22.9432 18.5114C22.9432 15.8409 22.5341 13.625 21.7159 11.8636C20.8977 10.0909 19.6875 8.76705 18.0852 7.89205C16.4943 7.00568 14.517 6.5625 12.1534 6.5625H6.76705V30.5284ZM46.5426 36.5114C43.9176 36.5114 41.6506 35.9659 39.7415 34.875C37.8438 33.7727 36.3835 32.2159 35.3608 30.2045C34.3381 28.1818 33.8267 25.8011 33.8267 23.0625C33.8267 20.3693 34.3381 18.0057 35.3608 15.9716C36.3949 13.9261 37.8381 12.3352 39.6903 11.1989C41.5426 10.0511 43.7188 9.47727 46.2188 9.47727C47.8324 9.47727 49.3551 9.73864 50.7869 10.2614C52.2301 10.7727 53.5028 11.5682 54.6051 12.6477C55.7188 13.7273 56.5938 15.1023 57.2301 16.7727C57.8665 18.4318 58.1847 20.4091 58.1847 22.7045V24.5966H36.7244V20.4375H52.2699C52.2585 19.2557 52.0028 18.2045 51.5028 17.2841C51.0028 16.3523 50.304 15.6193 49.4062 15.0852C48.5199 14.5511 47.4858 14.2841 46.304 14.2841C45.0426 14.2841 43.9347 14.5909 42.9801 15.2045C42.0256 15.8068 41.2813 16.6023 40.7472 17.5909C40.2244 18.5682 39.9574 19.642 39.946 20.8125V24.4432C39.946 25.9659 40.2244 27.2727 40.7812 28.3636C41.3381 29.4432 42.1165 30.2727 43.1165 30.8523C44.1165 31.4205 45.2869 31.7045 46.6278 31.7045C47.5256 31.7045 48.3381 31.5795 49.0653 31.3295C49.7926 31.0682 50.4233 30.6875 50.9574 30.1875C51.4915 29.6875 51.8949 29.0682 52.1676 28.3295L57.929 28.9773C57.5653 30.5 56.8722 31.8295 55.8494 32.9659C54.8381 34.0909 53.5426 34.9659 51.9631 35.5909C50.3835 36.2045 48.5767 36.5114 46.5426 36.5114ZM86.0412 9.81818L76.7173 36H69.8991L60.5753 9.81818H67.1548L73.1719 29.267H73.4446L79.4787 9.81818H86.0412ZM109.555 10.6875C109.396 9.19886 108.726 8.03977 107.544 7.21023C106.374 6.38068 104.851 5.96591 102.976 5.96591C101.658 5.96591 100.527 6.16477 99.5838 6.5625C98.6406 6.96023 97.919 7.5 97.419 8.18182C96.919 8.86364 96.6634 9.64205 96.652 10.517C96.652 11.2443 96.8168 11.875 97.1463 12.4091C97.4872 12.9432 97.9474 13.3977 98.527 13.7727C99.1065 14.1364 99.7486 14.4432 100.453 14.6932C101.158 14.9432 101.868 15.1534 102.584 15.3239L105.857 16.142C107.175 16.4489 108.442 16.8636 109.658 17.3864C110.885 17.9091 111.982 18.5682 112.947 19.3636C113.925 20.1591 114.697 21.1193 115.266 22.2443C115.834 23.3693 116.118 24.6875 116.118 26.1989C116.118 28.2443 115.595 30.0455 114.55 31.6023C113.504 33.1477 111.993 34.358 110.016 35.233C108.05 36.0966 105.669 36.5284 102.874 36.5284C100.158 36.5284 97.7997 36.108 95.7997 35.267C93.8111 34.4261 92.2543 33.1989 91.1293 31.5852C90.0156 29.9716 89.4134 28.0057 89.3224 25.6875H95.544C95.6349 26.9034 96.0099 27.9148 96.669 28.7216C97.3281 29.5284 98.1861 30.1307 99.2429 30.5284C100.311 30.9261 101.504 31.125 102.822 31.125C104.197 31.125 105.402 30.9205 106.436 30.5114C107.482 30.0909 108.3 29.5114 108.891 28.7727C109.482 28.0227 109.783 27.1477 109.794 26.1477C109.783 25.2386 109.516 24.4886 108.993 23.8977C108.47 23.2955 107.737 22.7955 106.794 22.3977C105.862 21.9886 104.771 21.625 103.521 21.3068L99.5497 20.2841C96.6747 19.5455 94.402 18.4261 92.7315 16.9261C91.0724 15.4148 90.2429 13.4091 90.2429 10.9091C90.2429 8.85227 90.7997 7.05114 91.9134 5.50568C93.0384 3.96023 94.5668 2.76136 96.4986 1.90909C98.4304 1.04545 100.618 0.613635 103.061 0.613635C105.538 0.613635 107.709 1.04545 109.572 1.90909C111.447 2.76136 112.919 3.94886 113.987 5.47159C115.055 6.98295 115.607 8.72159 115.641 10.6875H109.555ZM134.557 9.81818V14.5909H119.506V9.81818H134.557ZM123.222 3.54545H129.392V28.125C129.392 28.9545 129.517 29.5909 129.767 30.0341C130.028 30.4659 130.369 30.7614 130.79 30.9205C131.21 31.0795 131.676 31.1591 132.188 31.1591C132.574 31.1591 132.926 31.1307 133.244 31.0739C133.574 31.017 133.824 30.9659 133.994 30.9205L135.034 35.7443C134.705 35.858 134.233 35.983 133.619 36.1193C133.017 36.2557 132.278 36.3352 131.403 36.358C129.858 36.4034 128.466 36.1705 127.227 35.6591C125.989 35.1364 125.006 34.3295 124.278 33.2386C123.563 32.1477 123.21 30.7841 123.222 29.1477V3.54545ZM139.717 36V9.81818H145.7V14.1818H145.973C146.45 12.6705 147.268 11.5057 148.428 10.6875C149.598 9.85795 150.933 9.44318 152.433 9.44318C152.774 9.44318 153.155 9.46023 153.575 9.49432C154.007 9.51704 154.365 9.55682 154.649 9.61364V15.2898C154.388 15.1989 153.973 15.1193 153.405 15.0511C152.848 14.9716 152.308 14.9318 151.786 14.9318C150.661 14.9318 149.649 15.1761 148.751 15.6648C147.865 16.142 147.166 16.8068 146.655 17.6591C146.143 18.5114 145.888 19.4943 145.888 20.608V36H139.717ZM169.261 36.5114C166.636 36.5114 164.369 35.9659 162.46 34.875C160.563 33.7727 159.102 32.2159 158.08 30.2045C157.057 28.1818 156.545 25.8011 156.545 23.0625C156.545 20.3693 157.057 18.0057 158.08 15.9716C159.114 13.9261 160.557 12.3352 162.409 11.1989C164.261 10.0511 166.438 9.47727 168.938 9.47727C170.551 9.47727 172.074 9.73864 173.506 10.2614C174.949 10.7727 176.222 11.5682 177.324 12.6477C178.438 13.7273 179.313 15.1023 179.949 16.7727C180.585 18.4318 180.903 20.4091 180.903 22.7045V24.5966H159.443V20.4375H174.989C174.977 19.2557 174.722 18.2045 174.222 17.2841C173.722 16.3523 173.023 15.6193 172.125 15.0852C171.239 14.5511 170.205 14.2841 169.023 14.2841C167.761 14.2841 166.653 14.5909 165.699 15.2045C164.744 15.8068 164 16.6023 163.466 17.5909C162.943 18.5682 162.676 19.642 162.665 20.8125V24.4432C162.665 25.9659 162.943 27.2727 163.5 28.3636C164.057 29.4432 164.835 30.2727 165.835 30.8523C166.835 31.4205 168.006 31.7045 169.347 31.7045C170.244 31.7045 171.057 31.5795 171.784 31.3295C172.511 31.0682 173.142 30.6875 173.676 30.1875C174.21 29.6875 174.614 29.0682 174.886 28.3295L180.648 28.9773C180.284 30.5 179.591 31.8295 178.568 32.9659C177.557 34.0909 176.261 34.9659 174.682 35.5909C173.102 36.2045 171.295 36.5114 169.261 36.5114ZM193.658 36.5284C191.999 36.5284 190.504 36.233 189.175 35.642C187.857 35.0398 186.811 34.1534 186.038 32.983C185.277 31.8125 184.896 30.3693 184.896 28.6534C184.896 27.1761 185.169 25.9545 185.714 24.9886C186.26 24.0227 187.004 23.25 187.947 22.6705C188.891 22.0909 189.953 21.6534 191.135 21.358C192.328 21.0511 193.561 20.8295 194.834 20.6932C196.368 20.5341 197.612 20.392 198.567 20.267C199.521 20.1307 200.214 19.9261 200.646 19.6534C201.089 19.3693 201.311 18.9318 201.311 18.3409V18.2386C201.311 16.9545 200.93 15.9602 200.169 15.2557C199.408 14.5511 198.311 14.1989 196.879 14.1989C195.368 14.1989 194.169 14.5284 193.283 15.1875C192.408 15.8466 191.817 16.625 191.51 17.5227L185.749 16.7045C186.203 15.1136 186.953 13.7841 187.999 12.7159C189.044 11.6364 190.322 10.8295 191.834 10.2955C193.345 9.75 195.016 9.47727 196.845 9.47727C198.107 9.47727 199.362 9.625 200.612 9.92045C201.862 10.2159 203.004 10.7045 204.038 11.3864C205.072 12.0568 205.902 12.9716 206.527 14.1307C207.163 15.2898 207.482 16.7386 207.482 18.4773V36H201.55V32.4034H201.345C200.97 33.1307 200.442 33.8125 199.76 34.4489C199.089 35.0739 198.243 35.5795 197.22 35.9659C196.209 36.3409 195.021 36.5284 193.658 36.5284ZM195.26 31.9943C196.499 31.9943 197.572 31.75 198.482 31.2614C199.391 30.7614 200.089 30.1023 200.578 29.2841C201.078 28.4659 201.328 27.5739 201.328 26.608V23.5227C201.135 23.6818 200.805 23.8295 200.339 23.9659C199.885 24.1023 199.374 24.2216 198.805 24.3239C198.237 24.4261 197.675 24.517 197.118 24.5966C196.561 24.6761 196.078 24.7443 195.669 24.8011C194.749 24.9261 193.925 25.1307 193.197 25.4148C192.47 25.6989 191.896 26.0966 191.476 26.608C191.055 27.108 190.845 27.7557 190.845 28.5511C190.845 29.6875 191.26 30.5455 192.089 31.125C192.919 31.7045 193.976 31.9943 195.26 31.9943ZM219.311 27.7841L219.294 20.3352H220.283L229.692 9.81818H236.902L225.328 22.7045H224.05L219.311 27.7841ZM213.686 36V1.09091H219.857V36H213.686ZM230.118 36L221.595 24.0852L225.754 19.7386L237.499 36H230.118Z" fill="#0F766E"/>
</svg>
